<?xml version="1.0" encoding="utf-8"?>
<!-- Generator: Adobe Illustrator 15.0.0, SVG Export Plug-In . SVG Version: 6.00 Build 0)  -->
<!DOCTYPE svg PUBLIC "-//W3C//DTD SVG 1.1//EN" "http://www.w3.org/Graphics/SVG/1.1/DTD/svg11.dtd">
<svg version="1.1" id="Layer_1" xmlns="http://www.w3.org/2000/svg" xmlns:xlink="http://www.w3.org/1999/xlink" x="0px" y="0px"
	 width="410px" height="387px" viewBox="0 0 410 387" enable-background="new 0 0 410 387" xml:space="preserve">
<rect x="-50.169" y="-2" fill="#CCCCCC" width="510.86" height="390.756"/>
<g>
	<path fill="#FFFFFF" d="M55.857,203.017v-19.282h3.893v19.282H55.857z"/>
	<path fill="#FFFFFF" d="M63.405,203.017v-19.282h5.827l3.5,13.156l3.46-13.156h5.837v19.282h-3.617v-15.179l-3.826,15.179h-3.745
		l-3.821-15.179v15.179H63.405z"/>
	<path fill="#FFFFFF" d="M103.285,203.017h-4.238l-1.681-4.382h-7.708l-1.594,4.382h-4.126l7.507-19.282h4.113L103.285,203.017z
		 M96.116,195.39l-2.66-7.155l-2.604,7.155H96.116z"/>
	<path fill="#FFFFFF" d="M114.318,195.928v-3.247h8.395v7.677c-0.816,0.789-2.001,1.485-3.547,2.085
		c-1.548,0.604-3.111,0.905-4.703,0.905c-2.019,0-3.775-0.422-5.275-1.271c-1.497-0.844-2.625-2.055-3.38-3.63
		c-0.755-1.571-1.126-3.288-1.126-5.133c0-2.011,0.415-3.793,1.258-5.357c0.841-1.558,2.074-2.755,3.696-3.589
		c1.238-0.641,2.773-0.961,4.619-0.961c2.393,0,4.261,0.503,5.606,1.507c1.347,0.999,2.211,2.39,2.601,4.164l-3.87,0.722
		c-0.269-0.95-0.78-1.695-1.53-2.242c-0.75-0.549-1.688-0.822-2.807-0.822c-1.704,0-3.056,0.539-4.062,1.615
		c-1.001,1.08-1.502,2.682-1.502,4.802c0,2.291,0.506,4.006,1.528,5.15c1.014,1.145,2.349,1.718,3.996,1.718
		c0.813,0,1.632-0.162,2.454-0.481c0.821-0.315,1.522-0.708,2.107-1.17v-2.442H114.318z"/>
	<path fill="#FFFFFF" d="M126.297,203.017v-19.282h14.3v3.261h-10.403v4.276h9.681v3.25h-9.681v5.251h10.769v3.244H126.297z"/>
	<path fill="#FFFFFF" d="M151.75,203.017v-19.282h6.246c2.367,0,3.913,0.099,4.627,0.29c1.108,0.292,2.031,0.92,2.776,1.889
		c0.748,0.966,1.124,2.219,1.124,3.755c0,1.185-0.216,2.179-0.648,2.987c-0.429,0.803-0.976,1.442-1.64,1.899
		c-0.661,0.463-1.332,0.765-2.014,0.913c-0.93,0.188-2.277,0.276-4.042,0.276h-2.538v7.273H151.75z M155.642,186.996v5.471h2.13
		c1.536,0,2.558-0.099,3.079-0.3c0.516-0.201,0.925-0.517,1.215-0.948c0.295-0.43,0.444-0.928,0.444-1.5
		c0-0.701-0.208-1.281-0.623-1.731c-0.412-0.46-0.928-0.745-1.565-0.859c-0.46-0.089-1.396-0.133-2.799-0.133H155.642z"/>
	<path fill="#FFFFFF" d="M169.819,203.017v-19.125h3.893v15.881h9.681v3.244H169.819z"/>
	<path fill="#FFFFFF" d="M203.552,203.017h-4.235l-1.678-4.382h-7.708l-1.594,4.382h-4.124l7.502-19.282h4.118L203.552,203.017z
		 M196.389,195.39l-2.657-7.155l-2.601,7.155H196.389z"/>
	<path fill="#FFFFFF" d="M217.956,195.928l3.778,1.196c-0.58,2.11-1.54,3.672-2.888,4.693c-1.348,1.017-3.051,1.53-5.12,1.53
		c-2.563,0-4.668-0.874-6.314-2.623c-1.653-1.755-2.477-4.14-2.477-7.177c0-3.208,0.83-5.702,2.487-7.477
		c1.656-1.771,3.833-2.664,6.534-2.664c2.363,0,4.275,0.699,5.749,2.092c0.876,0.823,1.542,2.008,1.974,3.551l-3.849,0.92
		c-0.234-0.999-0.713-1.792-1.429-2.369c-0.723-0.577-1.606-0.865-2.635-0.865c-1.438,0-2.599,0.514-3.482,1.536
		c-0.896,1.029-1.342,2.687-1.342,4.985c0,2.438,0.441,4.172,1.322,5.209c0.879,1.031,2.019,1.555,3.421,1.555
		c1.032,0,1.917-0.335,2.664-0.995C217.098,198.37,217.631,197.337,217.956,195.928z"/>
	<path fill="#FFFFFF" d="M225.074,203.017v-19.282h14.299v3.261h-10.409v4.276h9.682v3.25h-9.682v5.251h10.77v3.244H225.074z"/>
	<path fill="#FFFFFF" d="M243.053,203.017v-19.282h3.896v7.589h7.627v-7.589h3.889v19.282h-3.889v-8.429h-7.627v8.429H243.053z"/>
	<path fill="#FFFFFF" d="M261.698,193.496c0-1.965,0.3-3.612,0.89-4.944c0.427-0.984,1.031-1.868,1.789-2.646
		c0.764-0.78,1.587-1.357,2.492-1.736c1.199-0.508,2.588-0.762,4.159-0.762c2.837,0,5.11,0.882,6.818,2.644
		c1.702,1.764,2.557,4.215,2.557,7.357c0,3.104-0.844,5.548-2.537,7.302c-1.698,1.76-3.955,2.639-6.788,2.639
		c-2.862,0-5.149-0.874-6.838-2.623C262.548,198.97,261.698,196.562,261.698,193.496z M265.714,193.367
		c0,2.176,0.504,3.834,1.516,4.962c1.002,1.124,2.284,1.692,3.834,1.692c1.552,0,2.827-0.563,3.824-1.683
		c0.991-1.113,1.495-2.796,1.495-5.025c0-2.212-0.483-3.862-1.455-4.95c-0.971-1.083-2.253-1.627-3.864-1.627
		c-1.606,0-2.893,0.547-3.874,1.647C266.202,189.487,265.714,191.145,265.714,193.367z"/>
	<path fill="#FFFFFF" d="M283.546,203.017v-19.125h3.895v15.881h9.682v3.244H283.546z"/>
	<path fill="#FFFFFF" d="M299.876,183.734h7.119c1.606,0,2.832,0.122,3.671,0.372c1.135,0.327,2.104,0.923,2.909,1.774
		c0.808,0.849,1.423,1.892,1.84,3.122c0.428,1.231,0.625,2.751,0.625,4.561c0,1.586-0.188,2.949-0.585,4.101
		c-0.482,1.408-1.169,2.538-2.068,3.407c-0.671,0.655-1.586,1.174-2.73,1.534c-0.859,0.274-2.009,0.412-3.447,0.412h-7.333V183.734z
		 M303.771,186.996v12.777h2.914c1.083,0,1.871-0.065,2.354-0.188c0.629-0.158,1.152-0.433,1.575-0.798
		c0.406-0.382,0.747-1.002,1.013-1.867c0.259-0.863,0.396-2.038,0.396-3.533c0-1.487-0.137-2.629-0.396-3.432
		c-0.266-0.798-0.631-1.418-1.104-1.866c-0.472-0.447-1.072-0.75-1.805-0.905c-0.539-0.125-1.606-0.188-3.192-0.188H303.771z"/>
	<path fill="#FFFFFF" d="M319.345,203.017v-19.282h14.298v3.261H323.24v4.276h9.68v3.25h-9.68v5.251h10.773v3.244H319.345z"/>
	<path fill="#FFFFFF" d="M337.329,203.017v-19.282h8.19c2.06,0,3.56,0.175,4.495,0.523c0.936,0.346,1.678,0.961,2.237,1.846
		c0.563,0.885,0.844,1.896,0.844,3.039c0,1.446-0.422,2.641-1.275,3.584c-0.851,0.94-2.121,1.534-3.81,1.783
		c0.84,0.488,1.53,1.029,2.085,1.616c0.544,0.593,1.281,1.629,2.212,3.134l2.354,3.758h-4.651l-2.817-4.194
		c-1.002-1.5-1.683-2.44-2.054-2.832c-0.365-0.391-0.752-0.657-1.175-0.808c-0.406-0.146-1.058-0.217-1.957-0.217h-0.788v8.051
		H337.329z M341.219,191.89h2.883c1.871,0,3.03-0.074,3.503-0.236c0.458-0.16,0.823-0.432,1.083-0.816
		c0.27-0.384,0.396-0.867,0.396-1.444c0-0.648-0.173-1.172-0.518-1.571c-0.346-0.404-0.834-0.656-1.471-0.758
		c-0.315-0.043-1.261-0.069-2.842-0.069h-3.035V191.89z"/>
</g>
</svg>
